<svg width="512" height="512" viewBox="0 0 512 512" fill="none" xmlns="http://www.w3.org/2000/svg">
  <defs>
    <linearGradient id="left04" x1="66" y1="256" x2="256" y2="256" gradientUnits="userSpaceOnUse">
      <stop stop-color="#DDD6FE"/>
      <stop offset="1" stop-color="#C4B5FD"/>
    </linearGradient>
    <linearGradient id="right04" x1="256" y1="256" x2="446" y2="256" gradientUnits="userSpaceOnUse">
      <stop stop-color="#A7F3D0"/>
      <stop offset="1" stop-color="#6EE7B7"/>
    </linearGradient>
  </defs>

  <circle cx="256" cy="256" r="190" fill="#F8FAFC"/>
  <path d="M256 66C151.066 66 66 151.066 66 256C66 360.934 151.066 446 256 446V66Z" fill="url(#left04)"/>
  <path d="M256 66C360.934 66 446 151.066 446 256C446 360.934 360.934 446 256 446V66Z" fill="url(#right04)"/>

  <g>
    <rect x="112" y="182" width="122" height="14" rx="7" fill="#5B21B6"/>
    <rect x="98" y="214" width="136" height="14" rx="7" fill="#6D28D9"/>
    <rect x="118" y="246" width="116" height="14" rx="7" fill="#7C3AED"/>
    <rect x="104" y="278" width="130" height="14" rx="7" fill="#8B5CF6"/>
    <rect x="120" y="310" width="114" height="14" rx="7" fill="#A78BFA"/>
  </g>

  <g>
    <rect x="278" y="176" width="124" height="42" rx="12" fill="#047857"/>
    <rect x="278" y="226" width="58" height="42" rx="12" fill="#10B981"/>
    <rect x="344" y="226" width="58" height="42" rx="12" fill="#34D399"/>
    <rect x="278" y="276" width="124" height="42" rx="12" fill="#059669"/>
  </g>

  <rect x="250" y="114" width="12" height="284" rx="6" fill="#FFFFFF" opacity="0.95"/>
  <circle cx="256" cy="256" r="190" stroke="#1F2937" stroke-width="12"/>
</svg>
