<svg width="512" height="512" viewBox="0 0 512 512" fill="none" xmlns="http://www.w3.org/2000/svg">
  <circle cx="256" cy="256" r="220" fill="#F8FAFC"/>
  <clipPath id="leftHalf01"><rect x="36" y="36" width="220" height="440"/></clipPath>
  <clipPath id="rightHalf01"><rect x="256" y="36" width="220" height="440"/></clipPath>

  <circle cx="256" cy="256" r="220" fill="#DBEAFE" clip-path="url(#leftHalf01)"/>
  <circle cx="256" cy="256" r="220" fill="#BFDBFE" clip-path="url(#rightHalf01)"/>

  <g clip-path="url(#leftHalf01)">
    <rect x="110" y="168" width="128" height="16" rx="8" fill="#1E40AF"/>
    <rect x="94" y="208" width="144" height="16" rx="8" fill="#1E40AF" opacity="0.9"/>
    <rect x="122" y="248" width="116" height="16" rx="8" fill="#1E40AF" opacity="0.85"/>
    <rect x="102" y="288" width="136" height="16" rx="8" fill="#1E40AF" opacity="0.8"/>
  </g>

  <g clip-path="url(#rightHalf01)">
    <rect x="276" y="160" width="126" height="44" rx="12" fill="#0369A1"/>
    <rect x="276" y="216" width="98" height="44" rx="12" fill="#0284C7"/>
    <rect x="384" y="216" width="50" height="44" rx="12" fill="#0EA5E9"/>
    <rect x="276" y="272" width="158" height="44" rx="12" fill="#38BDF8"/>
  </g>

  <rect x="250" y="96" width="12" height="320" rx="6" fill="#FFFFFF" opacity="0.9"/>
  <circle cx="256" cy="256" r="220" stroke="#1E3A8A" stroke-width="16"/>
</svg>
